<svg width="49" height="49" viewBox="0 0 49 49" fill="none" xmlns="http://www.w3.org/2000/svg">
<circle cx="24.7612" cy="24.614" r="23" stroke="white" stroke-width="2"/>
<path d="M16.2192 26.2308C16.0731 26.0846 16 25.8654 16 25.7192C16 25.5731 16.0731 25.3538 16.2192 25.2077L17.2423 24.1846C17.5346 23.8923 17.9731 23.8923 18.2654 24.1846L18.3385 24.2577L22.3577 28.5692C22.5038 28.7154 22.7231 28.7154 22.8692 28.5692L32.6615 18.4115H32.7346C33.0269 18.1192 33.4654 18.1192 33.7577 18.4115L34.7808 19.4346C35.0731 19.7269 35.0731 20.1654 34.7808 20.4577L23.0885 32.5885C22.9423 32.7346 22.7962 32.8077 22.5769 32.8077C22.3577 32.8077 22.2115 32.7346 22.0654 32.5885L16.3654 26.45L16.2192 26.2308Z" fill="white"/>
</svg>
