<svg width="49" height="49" viewBox="0 0 49 49" fill="none" xmlns="http://www.w3.org/2000/svg">
<circle cx="24.8423" cy="24.614" r="23" stroke="white" stroke-width="2"/>
<path d="M24.908 13.7206C18.9428 13.7206 13.949 18.5832 13.949 24.5484C13.949 30.5134 18.9428 35.5073 24.908 35.5073C27.3097 35.5073 29.5934 34.7396 31.4835 33.2827C32.5268 32.4755 31.3062 30.9203 30.3021 31.7078C28.7468 32.9087 26.8766 33.5387 24.908 33.5387C20.0257 33.5387 15.9177 29.4306 15.9177 24.5484C15.9177 19.666 20.0257 15.6893 24.908 15.6893C29.7902 15.6893 33.767 19.666 33.767 24.5484V25.6639C33.767 28.2626 29.8297 28.2626 29.8297 25.6639V20.611C29.8297 19.3116 27.861 19.3116 27.861 20.611V20.6307C27.0343 20.0204 26.0302 19.6267 24.908 19.6267C22.1912 19.6267 19.9863 21.8316 19.9863 24.5484C19.9863 27.2651 22.1912 29.6013 24.908 29.6013C26.3845 29.6013 27.6836 28.9516 28.5894 27.9279C30.7943 31.0778 35.7357 29.4832 35.7357 25.6639V24.5484C35.7357 18.5832 30.8731 13.7206 24.908 13.7206ZM24.908 27.6326C23.2738 27.6326 21.9549 26.1823 21.9549 24.5484C21.9549 22.9143 23.2738 21.5953 24.908 21.5953C26.5421 21.5953 27.861 22.9143 27.861 24.5484C27.861 26.1823 26.5421 27.6326 24.908 27.6326Z" fill="white"/>
</svg>
