<svg width="49" height="49" viewBox="0 0 49 49" fill="none" xmlns="http://www.w3.org/2000/svg">
<circle cx="24.9233" cy="24.614" r="23" stroke="white" stroke-width="2"/>
<g clip-path="url(#clip0)">
<path d="M34.5483 19.788H30.1978C30.51 19.5749 30.7781 19.3631 30.9651 19.1734C32.0733 18.0583 32.0733 16.2433 30.9651 15.1281C29.8885 14.0446 28.0102 14.0433 26.9322 15.1281C26.3368 15.7263 24.7542 18.1614 24.9728 19.788H24.8738C25.0911 18.1614 23.5098 15.7263 22.9145 15.1281C21.8365 14.0433 19.9582 14.0446 18.8816 15.1281C17.7733 16.2433 17.7733 18.0583 18.8802 19.1734C19.0686 19.3631 19.3367 19.5749 19.6488 19.788H15.2983C14.5407 19.788 13.9233 20.4054 13.9233 21.163V24.6005C13.9233 24.98 14.2313 25.288 14.6108 25.288H15.2983V33.538C15.2983 34.2956 15.9157 34.913 16.6733 34.913H33.1733C33.931 34.913 34.5483 34.2956 34.5483 33.538V25.288H35.2358C35.6153 25.288 35.9233 24.98 35.9233 24.6005V21.163C35.9233 20.4054 35.306 19.788 34.5483 19.788ZM19.8565 16.0975C20.1356 15.817 20.5055 15.663 20.8987 15.663C21.2906 15.663 21.6605 15.817 21.9396 16.0975C22.8663 17.0298 23.7876 19.4113 23.4672 19.7426C23.4672 19.7426 23.4095 19.788 23.2128 19.788C22.2627 19.788 20.4491 18.8008 19.8565 18.204C19.2803 17.6238 19.2803 16.6778 19.8565 16.0975ZM24.2358 33.538H16.6733V25.288H24.2358V33.538ZM24.2358 23.913H15.2983V21.163H23.2128H24.2358V23.913ZM27.9071 16.0975C28.4653 15.5379 29.4333 15.5393 29.9902 16.0975C30.5663 16.6778 30.5663 17.6238 29.9902 18.204C29.3976 18.8008 27.584 19.788 26.6338 19.788C26.4372 19.788 26.3795 19.744 26.3781 19.7426C26.0591 19.4113 26.9803 17.0298 27.9071 16.0975ZM33.1733 33.538H25.6108V25.288H33.1733V33.538ZM34.5483 23.913H25.6108V21.163H26.6338H34.5483V23.913Z" fill="white"/>
</g>
<defs>
<clipPath id="clip0">
<rect width="22" height="22" fill="white" transform="translate(13.9233 13.614)"/>
</clipPath>
</defs>
</svg>
