<svg width="71" height="20" viewBox="0 0 71 20" fill="none" xmlns="http://www.w3.org/2000/svg">
<path d="M7.82032 10.3514C8.32552 9.97248 8.32552 9.34098 7.82032 8.96208C7.06252 8.33058 6.17842 8.58318 5.16782 8.58318C3.90482 8.58318 2.64203 8.45688 1.37903 8.20428C0.36863 7.95168 -0.0102683 9.46728 0.87383 9.84618C1.88423 10.2253 3.02092 10.4779 4.15762 10.6042C5.42062 10.7305 6.80992 11.1094 7.82032 10.3514Z" fill="white" fill-opacity="0.2"/>
<path d="M13.125 10.4776C13.8828 10.225 14.5141 10.0987 15.2719 9.97222C15.6508 9.97222 16.0297 10.0985 16.4088 9.97222C16.7877 9.84592 17.0403 9.84592 17.4192 9.59353C17.9244 9.34093 17.9244 8.45683 17.4192 8.20423C16.5351 7.82533 15.9036 7.82533 15.0195 8.07793C14.1354 8.33053 13.3776 8.45683 12.4935 8.96203C11.7357 9.46723 12.2409 10.7304 13.125 10.4776Z" fill="white" fill-opacity="0.2"/>
<path d="M28.6597 9.59361C29.0386 9.34101 29.0386 8.70951 28.6597 8.33061C28.0282 7.82542 27.523 7.95172 26.7652 7.95172C26.0074 7.95172 25.3759 8.07802 24.6181 8.07802C23.6077 8.20431 23.6077 9.59361 24.6181 9.59361C25.2498 9.59361 25.8811 9.71991 26.5128 9.71991C27.2704 9.97251 27.9019 10.2253 28.6597 9.59361Z" fill="white" fill-opacity="0.2"/>
<path d="M34.3436 9.71976C35.7329 9.21456 37.1222 9.46716 38.5115 9.08826C39.2693 8.83566 39.2693 7.69896 38.5115 7.44636C36.9959 6.94116 35.2277 7.44636 33.8382 8.33046C33.0806 8.70936 33.5858 9.97236 34.3436 9.71976Z" fill="white" fill-opacity="0.2"/>
<path d="M50.5098 8.83569C50.7624 8.58309 50.7624 8.07789 50.5098 7.82529C49.752 7.06749 48.7416 7.32009 47.7312 7.32009C46.8471 7.32009 45.8367 7.32009 44.9526 7.44639C44.1948 7.57269 44.1948 8.83569 44.9526 8.96199C45.8367 9.08829 46.5945 9.08829 47.4786 9.08829C48.489 9.34089 49.6257 9.59349 50.5098 8.83569Z" fill="white" fill-opacity="0.2"/>
<path d="M61.3716 7.57275C61.3716 6.81495 60.6138 6.30975 59.9823 6.56235C58.9719 6.81495 57.7089 6.81495 56.6985 6.94125C56.067 7.06755 56.067 8.20425 56.6985 8.33055C57.8352 8.45685 58.9719 8.33055 59.9823 8.70945C60.6138 8.83575 61.3716 8.33055 61.3716 7.57275Z" fill="white" fill-opacity="0.2"/>
<path d="M61.8767 19.5714C65.0342 16.6665 68.1917 13.509 70.2125 9.59354C70.4651 9.08834 70.4651 8.45684 69.9599 8.07794C66.8024 5.42565 63.266 3.40485 60.2348 0.626255C59.2244 -0.384144 57.7088 1.25775 58.7192 2.14185C61.4978 4.66785 64.7816 6.56234 67.5602 9.08834C65.5394 12.3721 62.6345 14.6457 59.9822 17.5506C58.7192 18.9397 60.6137 20.7081 61.8767 19.5714Z" fill="white" fill-opacity="0.2"/>
</svg>
