<svg width="82" height="63" viewBox="0 0 82 63" fill="none" xmlns="http://www.w3.org/2000/svg">
<path d="M1.90591 34.3563C1.29025 33.7406 0.982422 32.8171 0.982422 32.2015C0.982422 31.5858 1.29025 30.6623 1.90591 30.0467L6.21551 25.7371C7.44682 24.5057 9.29379 24.5057 10.5251 25.7371L10.8329 26.0449L27.7635 44.2068C28.3792 44.8224 29.3027 44.8224 29.9183 44.2068L71.1673 1.4186H71.4752C72.7065 0.187289 74.5535 0.187289 75.7848 1.4186L80.0944 5.7282C81.3257 6.95952 81.3257 8.80649 80.0944 10.0378L30.8418 61.1374C30.2261 61.753 29.6105 62.0608 28.687 62.0608C27.7635 62.0608 27.1479 61.753 26.5322 61.1374L2.52156 35.2798L1.90591 34.3563Z" fill="#27AE60"/>
</svg>
