<svg width="105" height="27" viewBox="0 0 105 27" fill="none" xmlns="http://www.w3.org/2000/svg">
<path d="M83.8039 9.75861V0.100969H86.3281V3.76108H86.5098L88.817 0.100969H91.7047L89.0139 4.36184L92.1085 9.36988V9.75861H89.3571L87.2772 6.05811H86.2927V9.74346L83.8039 9.75861ZM4.83639 3.94282L5.94705 6.46703H4.83134L3.96301 8.55203H6.73965L7.30507 9.75861H9.69803V9.40017L5.37153 0.0504843H4.3164L0 9.40017V9.75861H2.398L4.83639 3.94282ZM20.8702 0.100969H21.7486V9.75861H19.2244V5.46744L17.1646 7.61303H16.887L14.8676 5.46744V9.75861H12.3434V0.100969H13.2521L17.0233 4.28106L20.8702 0.100969ZM31.4315 2.33237H27.8673V3.69545H31.1387V5.88142H27.8673V7.57264H31.5527V9.75861H25.4188V0.126211H31.4315V2.33237ZM38.5952 9.75861H34.9654V0.126211H38.5952C44.8704 0.156501 44.8704 9.72832 38.5952 9.75861ZM37.424 7.51711H38.5952C41.6647 7.51711 41.6647 2.37276 38.5952 2.37276H37.424V7.51711ZM51.0648 7.57264V9.73337H46.183V7.57264H47.4047V2.27684H46.2789V0.126211H50.9891V2.27684H49.8381V7.57264H51.0648ZM60.3691 8.54698H56.5727L56.0123 9.75861H53.6042V9.40017L57.9357 0H58.9959L63.3376 9.39512V9.75356H60.9295L60.3691 8.54698ZM58.4557 3.91253L57.3703 6.43674H59.5714L58.4557 3.91253ZM64.3018 2.33237V0.126211H71.4554V2.33237H69.1029V9.75861H66.6695V2.33237H64.3018ZM80.5628 2.33237H77.0036V3.69545H80.27V5.88142H76.9986V7.57264H80.684V9.75861H74.5501V0.126211H80.5577L80.5628 2.33237ZM101.837 9.75861H104.25V9.40017L99.9134 0H98.8532L94.5065 9.40017V9.75861H96.9298L97.5003 8.54698H100.287L99.4136 6.44684H98.2929L99.4086 3.92263L101.837 9.75861ZM84.9145 16.887C84.9135 16.7749 84.9458 16.6651 85.0074 16.5715C85.0689 16.4778 85.1568 16.4046 85.2601 16.361C85.3633 16.3174 85.4771 16.3055 85.5871 16.3268C85.6971 16.348 85.7984 16.4015 85.878 16.4803C85.9575 16.5592 86.0119 16.6599 86.0341 16.7698C86.0564 16.8796 86.0454 16.9935 86.0028 17.0971C85.9602 17.2007 85.8877 17.2894 85.7946 17.3517C85.7015 17.4141 85.592 17.4474 85.48 17.4474C85.4059 17.448 85.3325 17.434 85.264 17.4062C85.1954 17.3783 85.133 17.3371 85.0804 17.285C85.0279 17.2329 84.9861 17.1709 84.9577 17.1026C84.9292 17.0343 84.9145 16.961 84.9145 16.887ZM85.48 17.3565C85.572 17.3585 85.6626 17.3331 85.7401 17.2835C85.8177 17.2339 85.8788 17.1624 85.9157 17.078C85.9525 16.9936 85.9634 16.9002 85.9471 16.8096C85.9307 16.719 85.8878 16.6353 85.8238 16.5691C85.7598 16.503 85.6775 16.4573 85.5875 16.438C85.4975 16.4187 85.4037 16.4266 85.3182 16.4606C85.2327 16.4947 85.1592 16.5534 85.1071 16.6293C85.055 16.7052 85.0266 16.7949 85.0256 16.887C85.0235 16.9477 85.0338 17.0082 85.0558 17.0648C85.0778 17.1214 85.111 17.1729 85.1535 17.2164C85.1959 17.2598 85.2468 17.2941 85.3029 17.3173C85.359 17.3406 85.4192 17.3522 85.48 17.3514V17.3565ZM85.3638 17.2151H85.2679V16.5639H85.5153C85.6667 16.5639 85.7425 16.6194 85.7425 16.7456C85.7439 16.7683 85.7406 16.7911 85.7328 16.8125C85.7251 16.8339 85.713 16.8535 85.6974 16.87C85.6818 16.8866 85.6629 16.8998 85.6421 16.9087C85.6212 16.9177 85.5986 16.9224 85.5759 16.9223L85.7576 17.205H85.6466L85.4749 16.9274H85.3638V17.2151ZM85.48 16.8516C85.5607 16.8516 85.6365 16.8516 85.6365 16.7456C85.6365 16.6396 85.5658 16.6497 85.4951 16.6497H85.3638V16.8516H85.48ZM69.1937 26.0145H66.5787V22.2787H64.8824V26.0145H62.1865V16.3821H64.8824V19.9665H66.5787V16.3821H69.1937V26.0145ZM81.1787 26.06C82.4812 26.048 83.7261 25.5218 84.6424 24.5961C85.5587 23.6704 86.072 22.4201 86.0706 21.1176C86.0713 20.0081 85.6948 18.9314 85.003 18.0641C84.3111 17.1968 83.345 16.5904 82.2632 16.3445C81.1814 16.0985 80.048 16.2276 79.0492 16.7106C78.0504 17.1935 77.2454 18.0016 76.7664 19.0023C76.7274 18.3312 76.4475 17.6967 75.9783 17.2153C75.509 16.734 74.8818 16.4381 74.2119 16.3821H69.7491V26.0095H73.909C74.6402 26.0048 75.3427 25.7238 75.8754 25.2229C76.4082 24.722 76.7318 24.0382 76.7815 23.3086C77.1843 24.1322 77.8097 24.8265 78.5869 25.3128C79.364 25.7991 80.2619 26.0579 81.1787 26.06ZM73.5505 22.1424C73.7441 22.173 73.9204 22.2717 74.0477 22.4207C74.175 22.5697 74.2449 22.7592 74.2449 22.9552C74.2449 23.1512 74.175 23.3407 74.0477 23.4897C73.9204 23.6387 73.7441 23.7374 73.5505 23.768H72.2278V22.1424H73.5505ZM73.5505 18.5277C73.7441 18.5583 73.9204 18.657 74.0477 18.806C74.175 18.955 74.2449 19.1445 74.2449 19.3405C74.2449 19.5365 74.175 19.726 74.0477 19.875C73.9204 20.024 73.7441 20.1227 73.5505 20.1533H72.2278V18.5277H73.5505ZM75.3124 21.1226C75.7008 21.0232 76.0517 20.8127 76.3221 20.5168C76.2542 20.9619 76.2542 21.4146 76.3221 21.8597C76.0827 21.5051 75.7276 21.2446 75.3175 21.1226H75.3124ZM78.7252 21.1226C78.7252 20.6383 78.8688 20.165 79.1378 19.7623C79.4068 19.3597 79.7893 19.0458 80.2367 18.8605C80.6841 18.6752 81.1764 18.6267 81.6513 18.7212C82.1263 18.8156 82.5626 19.0488 82.905 19.3913C83.2474 19.7337 83.4806 20.17 83.5751 20.6449C83.6696 21.1199 83.6211 21.6122 83.4358 22.0596C83.2504 22.507 82.9366 22.8894 82.534 23.1585C82.1313 23.4275 81.6579 23.5711 81.1736 23.5711C80.5251 23.5698 79.9037 23.3112 79.4456 22.8522C78.9875 22.3931 78.7302 21.7711 78.7302 21.1226H78.7252ZM81.1736 23.0511C81.5557 23.0541 81.93 22.9436 82.2492 22.7335C82.5683 22.5234 82.8178 22.2233 82.9661 21.8712C83.1144 21.5191 83.1548 21.1308 83.0821 20.7558C83.0094 20.3807 82.8269 20.0356 82.5578 19.7644C82.2887 19.4932 81.9451 19.308 81.5706 19.2324C81.1961 19.1567 80.8076 19.194 80.4543 19.3395C80.1011 19.485 79.799 19.7322 79.5864 20.0496C79.3738 20.3671 79.2603 20.7406 79.2603 21.1226C79.2616 21.6315 79.464 22.1192 79.8233 22.4795C80.1827 22.8397 80.6699 23.0434 81.1787 23.0461L81.1736 23.0511ZM22.5816 21.4154H18.8256V24.2324H18.2248V18.1138H18.8256V20.8096H22.5816V18.1138H23.1824V24.2324H22.5816V21.4154ZM27.6856 18.0279C28.0994 18.0219 28.51 18.1008 28.8921 18.2596C29.2743 18.4185 29.6198 18.6539 29.9074 18.9515C30.195 19.249 30.4186 19.6023 30.5644 19.9897C30.7102 20.377 30.7751 20.79 30.755 21.2034C30.755 22.0175 30.4316 22.7982 29.856 23.3738C29.2804 23.9494 28.4996 24.2728 27.6856 24.2728C26.8715 24.2728 26.0908 23.9494 25.5151 23.3738C24.9395 22.7982 24.6161 22.0175 24.6161 21.2034C24.5961 20.79 24.6609 20.377 24.8067 19.9897C24.9525 19.6023 25.1761 19.249 25.4637 18.9515C25.7513 18.6539 26.0969 18.4185 26.479 18.2596C26.8611 18.1008 27.2718 18.0219 27.6856 18.0279ZM27.6856 23.7226C28.0144 23.7271 28.3406 23.6642 28.6442 23.5378C28.9477 23.4115 29.2222 23.2243 29.4506 22.9878C29.6791 22.7513 29.8567 22.4705 29.9725 22.1627C30.0883 21.855 30.1398 21.5268 30.124 21.1983C30.1071 20.7201 29.9499 20.2574 29.672 19.8678C29.394 19.4783 29.0075 19.1791 28.5608 19.0077C28.114 18.8362 27.6266 18.8 27.1594 18.9035C26.6922 19.0071 26.2658 19.2458 25.9333 19.59C25.6008 19.9342 25.377 20.3686 25.2896 20.8391C25.2023 21.3097 25.2553 21.7955 25.4422 22.236C25.629 22.6766 25.9413 23.0525 26.3402 23.3168C26.7391 23.5812 27.207 23.7223 27.6856 23.7226ZM32.1938 18.1138H32.8148L35.2431 21.3346L37.5704 18.1138H38.1459V24.2324H37.535V19.078L35.2279 22.2131H35.1421L32.7895 19.0982V24.2324H32.1938V18.1138ZM40.0694 18.1138H43.6033V18.7196H40.6752V20.8349H43.3407V21.4407H40.6701V23.6367H43.6992V24.2324H40.0694V18.1138ZM50.4338 18.0279C50.8484 18.0205 51.2602 18.0983 51.6435 18.2566C52.0268 18.4148 52.3736 18.65 52.6623 18.9477C52.951 19.2454 53.1755 19.5992 53.3219 19.9872C53.4683 20.3752 53.5334 20.7892 53.5133 21.2034C53.5133 22.0175 53.1899 22.7982 52.6143 23.3738C52.0387 23.9494 51.2579 24.2728 50.4439 24.2728C49.6298 24.2728 48.8491 23.9494 48.2735 23.3738C47.6978 22.7982 47.3744 22.0175 47.3744 21.2034C47.3544 20.7909 47.419 20.3787 47.5642 19.9921C47.7093 19.6054 47.932 19.2526 48.2186 18.9552C48.5051 18.6578 48.8494 18.4221 49.2304 18.2626C49.6113 18.1032 50.0208 18.0233 50.4338 18.0279ZM50.4338 23.7276C50.7626 23.7321 51.0888 23.6693 51.3924 23.5429C51.6959 23.4165 51.9704 23.2293 52.1989 22.9928C52.4273 22.7563 52.6049 22.4755 52.7207 22.1678C52.8365 21.86 52.8881 21.5318 52.8722 21.2034C52.8553 20.7251 52.6981 20.2624 52.4202 19.8729C52.1422 19.4833 51.7557 19.1842 51.309 19.0127C50.8622 18.8413 50.3748 18.805 49.9076 18.9086C49.4404 19.0122 49.014 19.2509 48.6815 19.5951C48.349 19.9393 48.1252 20.3737 48.0379 20.8442C47.9505 21.3147 48.0036 21.8005 48.1904 22.2411C48.3772 22.6817 48.6895 23.0575 49.0884 23.3219C49.4873 23.5862 49.9552 23.7273 50.4338 23.7276ZM54.937 18.1138H58.4709V18.7196H55.5327V21.0166H58.2134V21.6224H55.5327V24.2324H54.937V18.1138Z" fill="white"/>
</svg>
