<svg width="26" height="26" viewBox="0 0 26 26" fill="none" xmlns="http://www.w3.org/2000/svg">
<path d="M13 24.7101C19.4496 24.7101 24.7101 19.4697 24.7101 13C24.7101 6.53021 19.4697 1.31006 13 1.31006C6.53021 1.31006 1.31006 6.55037 1.31006 13C1.31006 19.4496 6.55037 24.7101 13 24.7101ZM13 2.94262C18.5426 2.94262 23.0573 7.45735 23.0573 13C23.0573 18.5426 18.5426 23.0573 13 23.0573C7.45735 23.0573 2.94262 18.5426 2.94262 13C2.94262 7.45735 7.45735 2.94262 13 2.94262Z" fill="white"/>
<path d="M14.1086 18.845C14.2698 19.0062 14.4714 19.0868 14.6931 19.0868C14.8946 19.0868 15.1163 19.0062 15.2776 18.845C15.6 18.5225 15.6 17.9984 15.2776 17.676L10.5411 12.9395L15.2776 8.20309C15.6 7.88061 15.6 7.35658 15.2776 7.0341C14.9551 6.71162 14.431 6.71162 14.1086 7.0341L8.78764 12.355C8.6264 12.5163 8.54578 12.7178 8.54578 12.9395C8.54578 13.1612 8.6264 13.3628 8.78764 13.524L14.1086 18.845Z" fill="white"/>
</svg>
