<svg width="28" height="29" viewBox="0 0 28 29" fill="none" xmlns="http://www.w3.org/2000/svg">
<g clip-path="url(#clip0)">
<path d="M14.0001 0.631226C8.56388 0.631226 4.14136 5.12326 4.14136 10.6445V18.6183C4.14136 24.1395 8.56388 28.6312 14.0001 28.6312C19.436 28.6312 23.8588 24.1531 23.8588 18.6489V10.6445C23.8588 5.12326 19.436 0.631226 14.0001 0.631226ZM22.0045 18.6489C22.0045 23.1308 18.4139 26.7769 14.0001 26.7769C9.58654 26.7769 5.9957 23.1169 5.9957 18.618V10.6445C5.9957 6.14559 9.58654 2.48551 14.0001 2.48551C18.414 2.48551 22.0045 6.14559 22.0045 10.6445V18.6489Z" fill="white"/>
<path d="M14.0002 8.29568C13.4881 8.29568 13.073 8.71076 13.073 9.22286V12.4679C13.073 12.98 13.4881 13.3951 14.0002 13.3951C14.5123 13.3951 14.9273 12.98 14.9273 12.4679V9.22286C14.9273 8.71076 14.5123 8.29568 14.0002 8.29568Z" fill="white"/>
</g>
<defs>
<clipPath id="clip0">
<rect width="28" height="28" fill="white" transform="translate(0 0.631226)"/>
</clipPath>
</defs>
</svg>
