<svg width="22" height="18" viewBox="0 0 22 18" fill="none" xmlns="http://www.w3.org/2000/svg">
<path d="M10.989 4.93033L11.0344 5.6791L10.2776 5.58741C7.52277 5.23595 5.11609 4.04403 3.07269 2.04221L2.0737 1.04894L1.81638 1.78243C1.27147 3.4175 1.61961 5.14426 2.75483 6.30562C3.36028 6.94743 3.22405 7.03911 2.17965 6.65709C1.81638 6.53484 1.49852 6.44315 1.46824 6.48899C1.36229 6.59596 1.72556 7.98654 2.01315 8.53666C2.40669 9.30071 3.20892 10.0495 4.08682 10.4926L4.8285 10.8441L3.9506 10.8594C3.10296 10.8594 3.07269 10.8747 3.16351 11.1956C3.46624 12.1888 4.662 13.2432 5.994 13.7017L6.93245 14.0226L6.11509 14.5115C4.90418 15.2145 3.48137 15.6118 2.05856 15.6423C1.37743 15.6576 0.817383 15.7187 0.817383 15.7646C0.817383 15.9174 2.66401 16.7731 3.73869 17.1093C6.96272 18.1026 10.7922 17.6747 13.6681 15.9785C15.7115 14.7713 17.7549 12.3722 18.7085 10.0495C19.2231 8.81171 19.7378 6.55012 19.7378 5.46516C19.7378 4.76224 19.7832 4.67055 20.6308 3.83009C21.1303 3.3411 21.5995 2.80626 21.6903 2.65345C21.8417 2.36311 21.8266 2.36311 21.0546 2.62289C19.768 3.08132 19.5864 3.0202 20.2221 2.33255C20.6913 1.84355 21.2514 0.957254 21.2514 0.697476C21.2514 0.651633 21.0243 0.728038 20.767 0.865568C20.4946 1.01838 19.8891 1.24759 19.435 1.38512L18.6177 1.6449L17.876 1.14063C17.4673 0.865568 16.8921 0.559947 16.5894 0.46826C15.8175 0.254326 14.6368 0.284888 13.9406 0.529385C12.0485 1.21703 10.8528 2.98963 10.989 4.93033Z" fill="#9C9C9C"/>
</svg>
