<svg width="24" height="14" viewBox="0 0 24 14" fill="none" xmlns="http://www.w3.org/2000/svg">
<path d="M13.4562 13.0003C13.4562 13.0003 13.8728 12.9549 14.0861 12.7299C14.2814 12.5238 14.2747 12.1348 14.2747 12.1348C14.2747 12.1348 14.2487 10.3186 15.1078 10.0504C15.9545 9.78664 17.0417 11.8068 18.1955 12.5836C19.067 13.171 19.7286 13.0424 19.7286 13.0424L22.8117 13.0003C22.8117 13.0003 24.4239 12.9028 23.6596 11.6583C23.5963 11.5564 23.2136 10.7374 21.3678 9.05525C19.4339 7.29437 19.6936 7.57917 22.0215 4.53282C23.4394 2.67776 24.0061 1.54521 23.8289 1.06094C23.6607 0.597728 22.6175 0.720735 22.6175 0.720735L19.1472 0.74179C19.1472 0.74179 18.8898 0.707437 18.699 0.819361C18.5127 0.92907 18.3919 1.18506 18.3919 1.18506C18.3919 1.18506 17.8433 2.62013 17.1106 3.84133C15.565 6.41671 14.9475 6.55301 14.6946 6.39343C14.1065 6.01998 14.2532 4.89519 14.2532 4.09621C14.2532 1.59951 14.6393 0.558943 13.5025 0.289658C13.1254 0.199897 12.8477 0.141164 11.8824 0.131191C10.644 0.119001 9.59633 0.135623 9.00251 0.420422C8.60738 0.609918 8.30256 1.03324 8.48884 1.05762C8.71802 1.08754 9.23733 1.19503 9.51279 1.56294C9.86841 2.03834 9.85599 3.1044 9.85599 3.1044C9.85599 3.1044 10.0603 6.04325 9.37845 6.40784C8.91106 6.65829 8.26982 6.14742 6.89139 3.8103C6.1858 2.61348 5.65294 1.29033 5.65294 1.29033C5.65294 1.29033 5.5502 1.04321 5.36619 0.910231C5.14378 0.749547 4.83333 0.69968 4.83333 0.69968L1.53569 0.720735C1.53569 0.720735 1.04008 0.734033 0.858321 0.945692C0.696882 1.13297 0.845903 1.52194 0.845903 1.52194C0.845903 1.52194 3.42779 7.45173 6.35175 10.4405C9.03299 13.1798 12.0766 13.0003 12.0766 13.0003H13.4562Z" fill="#9C9C9C"/>
</svg>
